<svg width="1260" height="300" xmlns="http://www.w3.org/2000/svg">
  <defs>
    <pattern id="dots" width="22" height="22" patternUnits="userSpaceOnUse">
      <circle cx="1.5" cy="1.5" r="1.1" fill="#d1d5db"/>
    </pattern>
  </defs>
  <rect width="100%" height="100%" fill="#fafafa"/>
  <rect width="100%" height="100%" fill="url(#dots)"/>
  <text x="36" y="40" font-family="Inter,Segoe UI,sans-serif" font-size="18" font-weight="600" fill="#374151">v3 pipeline</text>

  <g transform="translate(24.0,140.0)">
  <path d="M21.313076487781856 21.049484008616915 L103.12969553066084 21.049484008616915 L103.12969553066084 60.59418321267509 L21.313076487781856 60.59418321267509" stroke="none" stroke-width="0.0" fill="#ffffff" />
  <path d="M22.588186127763997 20.199093429822938 C43.54601944030159 20.733949903683975, 63.21685559228129 20.73093453047995, 101.87693932739965 20.0 M21.548877600562 20.98177160282944 C47.63298102858005 20.575163882652788, 73.05121236429692 20.438308028417953, 103.11565558994349 21.093455110716505 M102.49320762595218 20.43820232201722 C102.58877954310195 37.00857345040324, 101.7311423666786 50.108699525303656, 102.08433653258865 59.39031846816758 M103.70980722768765 21.117103744208187 C103.36877705009549 34.017357903472956, 102.55888360379484 47.34184778606096, 103.744555673223 60.35403520825354 M103.72746320543031 61.41124386956414 C80.0304661103456 62.00000000000001, 54.968449103118495 61.64307665233659, 20.0 60.726615983031195 M102.7318883795844 60.54940710096666 C86.6830402115339 60.770244636525526, 70.51594946300739 60.32226389713694, 21.882406210485325 60.15378290896678 M22.712940583214255 60.226184153652056 C22.72281063792167 46.0122446709533, 21.253246720516476 29.289404471233784, 22.424452342922727 21.834885529441472 M21.899069117981185 60.46474976515349 C22.197372988006382 44.92096888470265, 21.438672051359312 30.718446258680206, 20.998840903162755 20.68962927863322" stroke="#374151" stroke-width="1.4" fill="none" />
</g><g transform="translate(198.0,130.0)">
  <path d="M21.229545726544448 21.55370499687951 L118.10333990557004 21.55370499687951 L118.10333990557004 76.69724937570946 L21.229545726544448 76.69724937570946" stroke="none" stroke-width="0.0" fill="#dbeafe" />
  <path d="M20.0 21.628364344290624 C55.972054569331654 20.0, 92.71744602665146 20.706448429631237, 117.66981134448955 21.142413881759275 M21.92053554950524 21.27408049528215 C48.10982570409202 22.233795903891288, 74.13403840822417 22.42928433070097, 117.91002061616187 21.344807234660976 M118.97771041508297 20.28557360191467 C118.52504426639327 33.694191217886285, 119.49469807448892 47.75784853672606, 118.42352763113317 78.0 M118.42736710348315 21.963252435747503 C118.1587116992599 43.22537115751134, 117.39557301064913 65.6267668441463, 117.88111942562402 77.37043919937182 M119.22272760074624 77.35254699633882 C84.01065314716303 74.9885479868239, 51.52705879236559 77.07205929558634, 22.599177390648556 75.69909080003595 M118.00991892758651 76.99975227303307 C86.50900345836487 75.98325983741941, 56.51955485068382 75.984333160897, 21.699912392064434 76.65941290399907 M22.433710785852753 77.37373915258652 C21.177466850007235 54.331783149574505, 22.680982696325927 34.05766879323123, 22.559756296558476 21.901846511956784 M20.706564346955396 76.45279731984232 C21.662198526264 55.86272938219224, 20.91268609783564 35.265640527078105, 21.150779761006195 21.11784939059327" stroke="#374151" stroke-width="1.4" fill="none" />
</g><g transform="translate(382.0,140.0)">
  <path d="M21.246148285223995 21.336726542051952 L93.82038460866433 21.336726542051952 L93.82038460866433 60.31177938241805 L21.246148285223995 60.31177938241805" stroke="none" stroke-width="0.0" fill="#ffffff" />
  <path d="M21.20981775097269 21.71586672537753 C42.51810655711992 21.62527981549279, 61.52294305047966 20.343740896359883, 93.15009781190588 22.536834534715844 M20.749877246167674 21.08915282493372 C44.317487775790774 22.2229020175944, 66.93962533795876 21.24218868841879, 93.83395633392887 21.26302288444794 M94.48575101563776 20.0 C95.12177919557365 36.25305938456952, 94.50439897863582 52.380840876752046, 94.01189847020682 59.774024609081934 M93.9920380979041 21.993009744330607 C94.46346014394322 29.84684932355727, 93.65211654168904 38.232500980490805, 93.15402942365894 60.434028700881726 M95.19085600098197 61.22229028202257 C66.89794323332542 61.60375434694855, 38.98095713175216 62.0, 20.81195372447528 60.205547187460795 M93.38514023681807 60.400305861887944 C78.40932936611914 61.07859695795686, 63.11999847337973 60.236424524090694, 20.79964398030514 61.0152556042045 M20.23089535993307 61.15685325601049 C21.74472790096928 48.2991687195011, 20.0 37.2982292949347, 21.164852844528898 21.281972762472158 M21.581282880784094 59.67919546039117 C21.366922709796576 47.25612589627259, 21.700040129837227 32.927713927487886, 21.181574474371242 20.801578461610205" stroke="#374151" stroke-width="1.4" fill="none" />
</g><g transform="translate(544.0,130.0)">
  <path d="M21.517829664530097 21.37376245869713 L127.65698021346418 21.37376245869713 L127.65698021346418 77.47588489170515 L21.517829664530097 77.47588489170515" stroke="none" stroke-width="0.0" fill="#dbeafe" />
  <path d="M21.423375169783494 20.0 C59.291256978732385 21.78850155201512, 94.96044767669495 22.45965728636505, 128.21129844080622 21.360794734201935 M21.00849841123271 21.414803036823145 C59.19449361256876 21.024638175363126, 96.00593492665188 21.175224405294678, 127.49903766553614 22.088864840009364 M128.57037299696265 20.139560460096533 C128.4179352903938 41.134007683331106, 127.4921791471465 59.90517800323265, 126.30579350509761 78.0 M127.28121927568239 21.82861048944121 C127.53041247840088 38.7354248291935, 127.11720702436688 54.617484654499755, 127.354789556711 77.37705056101308 M127.12448033765048 76.41844799152196 C86.1397382781959 77.88149593152953, 43.78329546323112 77.07244462328464, 20.0 76.47223139337615 M127.58660714471303 77.47979361644956 C97.38980792800028 76.64499138075716, 67.8730357054819 77.50745452707098, 22.070570209216733 77.40967016346852 M23.047190184240346 76.09129956862421 C20.41102233259686 59.1821688888745, 20.249275534227074 42.034315287099375, 22.483522526943926 22.755549926807703 M21.407028673538314 77.05179761831488 C21.225851596765978 63.948828639325356, 21.75894138930851 49.81414508745023, 21.68026644279403 20.79064067203244" stroke="#374151" stroke-width="1.4" fill="none" />
</g><g transform="translate(738.0,140.0)">
  <path d="M21.015575383437387 21.501677625424374 L104.15429536662647 21.501677625424374 L104.15429536662647 61.68539228396577 L21.015575383437387 61.68539228396577" stroke="none" stroke-width="0.0" fill="#ffffff" />
  <path d="M20.0 22.18801354478546 C52.69208887410785 21.58357334302641, 84.89642808880113 20.0, 105.53470462400607 20.13568153257706 M21.344014151572587 22.06710353169846 C50.034858382221 22.053013387930434, 77.71094369480586 21.870896011045893, 104.35889864934958 21.211474585354594 M104.83073976393885 20.72664671773312 C103.83119645889902 30.432878029222213, 103.5632523564343 40.25203956130298, 103.05893510399993 60.257135312394325 M104.72997670601605 21.95457403641972 C104.25384449891098 36.744880804022344, 104.18979406728319 51.2351904999271, 104.22394587718999 61.0763976520326 M105.25238824787424 61.02331174674951 C71.20060604536117 62.0, 38.231491274254125 61.988109115186134, 20.010326539792473 60.98193551887864 M103.6838089655046 61.92051668955148 C72.63684497792329 61.07962936531685, 40.25450910288032 61.178342616797465, 20.704718544495037 61.41449373989816 M21.456381330396738 60.694876533701915 C21.559598191408796 51.469669923801774, 20.644529866334892 44.38085089492518, 20.932525716225193 22.51407965479204 M20.594799459186692 60.977752452195205 C21.555450378000884 52.735909543948836, 20.481719462856102 44.82388460025945, 21.032498697919813 21.279126971499316" stroke="#374151" stroke-width="1.4" fill="none" />
</g><g transform="translate(904.0,128.0)">
  <path d="M20.751767324314727 21.35596155448294 L108.5952479233539 21.35596155448294 L108.5952479233539 80.42312954349204 L20.751767324314727 80.42312954349204" stroke="none" stroke-width="0.0" fill="#dbeafe" />
  <path d="M20.23633115292692 20.254670229608735 C48.66873697670792 22.28556844552518, 73.1796191457057 21.557660782928945, 109.87839760998456 22.418315783319475 M20.792723941004958 21.156830266104798 C42.93454101999289 21.424738218810035, 63.78120721349761 21.31611505652479, 108.96607574991586 21.146748573974264 M107.28923674319633 20.476144038993773 C109.46956669350261 33.103008224277644, 110.00492894349544 45.544423984409995, 107.62731648157929 81.65517137863934 M108.51662692110554 21.758179586315812 C108.56379114024894 40.248903780495, 108.48274152250723 58.69158565778286, 109.36574939348279 79.80011883918448 M107.62372273155557 80.39097931823333 C74.21085284041345 80.78717176381504, 39.430538532812236 80.57160643189358, 20.413842405598995 80.4679084901486 M107.81625733424015 80.34208838844081 C84.9555143883804 81.29577314222922, 61.15782088612674 80.36941885663556, 21.446333062894958 80.39635404527225 M21.591036935135655 82.0 C21.327213064306427 59.563566003751546, 20.6317463441765 38.37059806534408, 21.81235505980278 20.0 M21.399242499694346 79.85473020569434 C20.0 65.76968859708147, 21.114820670391005 52.47950214666765, 20.8199552288839 20.562262327341656" stroke="#374151" stroke-width="1.4" fill="none" />
</g><g transform="translate(1076.0,82.0)">
  <path d="M21.01690522244499 20.945966923398387 L90.16746883256216 20.945966923398387 L90.16746883256216 56.85106725942076 L21.01690522244499 56.85106725942076" stroke="none" stroke-width="0.0" fill="#ffffff" />
  <path d="M20.392112345947236 20.185458590207467 C47.43474863358128 20.0, 72.0366972550286 21.14359487831735, 90.98496536406185 21.00818079927233 M20.524405988228466 20.719069041592117 C39.42817245313958 20.289480616529225, 58.25420577999522 21.19407709564915, 90.52369072769689 20.62519377252455 M90.49168831295347 20.13589971580576 C91.18777012038485 30.53256838343343, 89.46168446082405 38.609768973505616, 91.38502754094567 56.60067763280628 M90.77435925915002 21.57974876852056 C90.66363101222505 33.90423998046843, 89.76437984612208 47.47573179823563, 90.79055856440202 57.3172863224503 M90.33362797862732 57.984331240369286 C63.73263682581643 56.32930398461235, 39.700597359376005 56.22230775585534, 20.0 56.24213724660402 M90.59485930953362 56.35896149797621 C71.84806561916056 57.79019440820272, 54.88439572551469 57.582930842243115, 20.39504856499691 56.97856746141004 M20.649716610118148 58.0 C21.68393685352106 44.261133227794815, 21.26907718006605 32.78200196671115, 20.586795677709965 21.20448364835253 M20.56100855502288 56.48079323828331 C20.89350891985979 46.124060927709294, 20.562033741729664 35.16423061769291, 20.868389568800907 20.775736245729554" stroke="#374151" stroke-width="1.4" fill="none" />
</g><g transform="translate(1076.0,178.0)">
  <path d="M20.907362344370412 21.379682258435402 L96.16735541998052 21.379682258435402 L96.16735541998052 57.02915266267178 L20.907362344370412 57.02915266267178" stroke="none" stroke-width="0.0" fill="#ffffff" />
  <path d="M21.30050059794391 22.50918850651699 C44.560434937106464 22.656775899833324, 70.68742971965487 20.0, 97.3183917689404 21.907843726606174 M20.970796541889243 21.48880840843942 C40.07089948607904 20.634036713837187, 57.69291509622117 21.2163329086218, 96.62954208125329 21.60249370965746 M95.42742663921139 21.833466745598272 C96.63613380201782 29.39281256756611, 94.84120107999696 41.08396693411393, 96.08865348378065 56.48046099842868 M95.52785998945842 21.43845909697845 C95.38829921582582 33.642887646172994, 96.5203640404131 44.59298626973507, 96.2226589395184 56.88225794825039 M95.07455973569473 56.144894923377095 C78.22032093639861 55.89495581550824, 59.22578104504046 56.58100144898274, 20.767859499027807 58.0 M96.17441073713262 56.35425945616897 C79.88321480355566 57.42527784305468, 61.84096873122772 57.728060623312366, 20.65181821323485 56.80745217231563 M21.8242489088258 55.76240492251603 C21.094592636461304 44.63981630822536, 20.0 32.05480888390331, 20.765266755262026 20.104762735246766 M20.9499018805096 57.396150067940695 C20.688020180406067 45.010291785850164, 20.789002969219744 34.285189080964194, 20.611426970081112 21.9314826521114" stroke="#374151" stroke-width="1.4" fill="none" />
</g><g transform="translate(388.0,22.0)">
  <path d="M20.94789723155605 20.66284356371382 L92.32610834561997 20.66284356371382 L92.32610834561997 53.107484979197416 L20.94789723155605 53.107484979197416" stroke="none" stroke-width="0.0" fill="#ede9fe" />
  <path d="M20.51994827324761 21.594901603299114 C41.84921104944577 20.02034672987164, 60.929911432383705 22.045327161017315, 91.57140647671326 20.83605719828841 M21.01014539779897 20.68706948804015 C42.71210208498677 20.16448764900977, 62.88900905171204 20.84473965118842, 92.76031028863699 20.281267639662058 M92.5734870306414 20.743992618574723 C91.94382300589673 30.156566318549565, 91.59079545234444 43.626791180672924, 91.36581087972448 52.30686730916883 M92.4440632008065 20.0 C92.32290117390762 31.315243987788094, 91.85591212447454 41.42568077139045, 92.37413093735688 53.77951559932459 M91.59485532561695 52.88510594330417 C64.96013386672306 52.577258707762816, 38.58030986030491 53.13356975831018, 20.964551245246412 53.99999999999999 M92.29507522232004 53.520190289892014 C66.37296647524661 53.30023545746046, 38.96002916742326 53.159326972291076, 21.35583624236368 53.27788100302242 M20.0 52.47842269078648 C20.648499311692955 40.36551032451299, 22.015076165468567 30.37449075429041, 20.296122801950325 21.168764558942257 M21.58519212186176 52.44245034798641 C21.292488814178512 44.811125462292736, 20.457966208725885 34.62107291984459, 21.242931539158597 20.612374183777472" stroke="#374151" stroke-width="1.4" fill="none" />
</g><g transform="translate(145.0,159.0)">
  <path d="M20.404994092282003 21.996308380402475 C27.357511408313677 21.430234394972494, 34.01979371655569 20.0692792362694, 53.405454774767044 20.0 M20.0 22.0 C27.768999251056734 21.92160903512543, 36.59112889675273 20.915504383867578, 54.273798736096126 20.050275994578218" stroke="#374151" stroke-width="1.3" fill="none" />
</g><g transform="translate(329.0,159.0)">
  <path d="M20.0 21.059848629056173 C29.556928316727547 20.869332373390442, 36.89527334925312 21.999999999999996, 52.76122417720411 21.901420890119123 M21.530733010299294 20.0 C31.174715701180208 20.236501022135062, 41.70272777784214 21.060237063223866, 53.93759719329306 21.885992506178507" stroke="#374151" stroke-width="1.3" fill="none" />
</g><g transform="translate(491.0,159.0)">
  <path d="M21.464332452065673 20.436876042623684 C29.997984038836993 22.0, 36.56429324691597 20.092823639776284, 55.288059661658764 20.0 M20.0 21.16744187722702 C27.606033473219682 20.525737883028935, 36.22928990641482 20.588661236770914, 55.6010084140693 20.3320153673983" stroke="#374151" stroke-width="1.3" fill="none" />
</g><g transform="translate(685.0,159.0)">
  <path d="M21.02694997975364 20.197904074269104 C26.763827997174307 20.0, 31.796820688342503 21.088479449905144, 40.49774613483393 22.0 M20.0 20.30452280107253 C25.64870611383138 20.565404110802554, 30.515474493942662 20.523459272484367, 41.061884921511634 21.799378239243357" stroke="#374151" stroke-width="1.3" fill="none" />
</g><g transform="translate(859.0,159.0)">
  <path d="M20.751485035998705 21.887072290014647 C24.928119884080942 21.14693997785514, 27.932349993336953 21.093925480682113, 33.45337769529676 20.0 M20.0 22.0 C23.081059858602195 21.701450614915117, 25.903218506226672 21.109043293284202, 33.20996725405054 21.126998756673746" stroke="#374151" stroke-width="1.3" fill="none" />
</g><g transform="translate(1012.0,101.0)">
  <path d="M20.0 76.38839189984694 C36.12260913757444 56.87422328013643, 52.411389964332486 35.169553695123206, 63.12079507317574 20.0 M21.80812276263199 77.19184188470038 C35.490424036306095 59.09739020088688, 49.21650225354638 40.54920733917186, 64.0 20.289189435835887" stroke="#374151" stroke-width="1.3" fill="none" />
</g><g transform="translate(1012.0,159.0)">
  <path d="M20.0 20.512642487959685 C28.51072748191273 25.735238102300823, 36.75541888907158 35.9175708642545, 64.0 56.95619274163835 M20.72866085650522 20.0 C35.370811459199345 32.976199556041166, 50.59578997905301 44.20645852984934, 61.82503149690878 56.123677059868825" stroke="#374151" stroke-width="1.3" fill="none" />
</g><g transform="translate(255.0,64.0)">
  <path d="M194.2917958291308 20.0 C135.5156282607872 38.4067014277757, 73.37991299549655 59.15486351006012, 20.0 78.0 M195.30257657438713 20.249758868407365 C132.67579159717144 39.94373285967332, 68.84121766370016 60.35381738899001, 20.41322973330473 77.43823636707393" stroke="#374151" stroke-width="1.3" fill="none" stroke-dasharray="7 6" />
</g><g transform="translate(435.0,64.0)">
  <path d="M21.54068385031227 20.0 C82.43112335460789 43.62376715068871, 140.2182196210765 61.34126995132506, 189.37012032337563 77.29243753810736 M20.0 20.186027394854865 C62.97521596540257 35.92211957514563, 104.02943905217666 50.83404753554561, 189.9547587803265 78.0" stroke="#374151" stroke-width="1.3" fill="none" stroke-dasharray="7 6" />
</g>
  <text x="96.0" y="181.0" font-family="Inter,Segoe UI,system-ui,sans-serif" font-size="13" font-weight="500" fill="#374151" text-anchor="middle">generator</text><text x="275.0" y="170.5" font-family="Inter,Segoe UI,system-ui,sans-serif" font-size="12" font-weight="500" fill="#374151" text-anchor="middle">raw</text><text x="275.0" y="187.5" font-family="Inter,Segoe UI,system-ui,sans-serif" font-size="12" font-weight="500" fill="#374151" text-anchor="middle">Parquet</text><text x="448.0" y="181.0" font-family="Inter,Segoe UI,system-ui,sans-serif" font-size="13" font-weight="500" fill="#374151" text-anchor="middle">compact</text><text x="626.0" y="170.5" font-family="Inter,Segoe UI,system-ui,sans-serif" font-size="12" font-weight="500" fill="#374151" text-anchor="middle">compacted</text><text x="626.0" y="187.5" font-family="Inter,Segoe UI,system-ui,sans-serif" font-size="12" font-weight="500" fill="#374151" text-anchor="middle">Parquet</text><text x="810.0" y="181.0" font-family="Inter,Segoe UI,system-ui,sans-serif" font-size="13" font-weight="500" fill="#374151" text-anchor="middle">upload-v3</text><text x="974.0" y="179.0" font-family="Inter,Segoe UI,system-ui,sans-serif" font-size="13" font-weight="500" fill="#374151" text-anchor="middle">MinIO</text><text x="1140.0" y="121.0" font-family="Inter,Segoe UI,system-ui,sans-serif" font-size="13" font-weight="500" fill="#374151" text-anchor="middle">query</text><text x="1145.0" y="217.0" font-family="Inter,Segoe UI,system-ui,sans-serif" font-size="13" font-weight="500" fill="#374151" text-anchor="middle">benchmark</text><text x="455.0" y="59.0" font-family="Inter,Segoe UI,system-ui,sans-serif" font-size="13" font-weight="500" fill="#374151" text-anchor="middle">inspect</text>
  
</svg>
